<svg width="499" height="148" viewBox="0 0 499 148" fill="none" xmlns="http://www.w3.org/2000/svg">
<path d="M49.5806 20.1765C95.1283 1.53122 108.84 36.8442 108.84 36.8442L65.6965 131.089C31.4382 121.098 21.3289 85.0087 28.0492 64.5848C17.8005 65.7292 12.965 76.7441 12.965 76.7441C18.1451 30.9984 45.6151 24.9727 67.5623 27.9806C60.5822 21.2369 53.7327 19.8015 49.5806 20.1765Z" fill="#198754"/>
<path d="M101.9 127.32C56.3523 145.965 42.6406 110.652 42.6406 110.652L85.7841 16.4067C120.042 26.3977 130.152 62.4874 123.431 82.9112C133.68 81.7669 138.516 70.752 138.516 70.752C133.336 116.498 105.866 122.523 83.9183 119.515C90.8984 126.259 97.7479 127.695 101.9 127.32Z" fill="#198754"/>
<circle cx="77.7907" cy="75.3091" r="28.5" fill="#CFCFCF"/>
<path d="M152.135 53.5H184.365C184.768 53.5 185.117 53.6467 185.41 53.94C185.703 54.2333 185.85 54.5817 185.85 54.985V63.84C185.85 64.2433 185.703 64.5917 185.41 64.885C185.117 65.1783 184.768 65.325 184.365 65.325H175.235V90.515C175.235 90.9183 175.088 91.2667 174.795 91.56C174.502 91.8533 174.153 92 173.75 92H162.75C162.347 92 161.998 91.8533 161.705 91.56C161.412 91.2667 161.265 90.9183 161.265 90.515V65.325H152.135C151.732 65.325 151.383 65.1783 151.09 64.885C150.797 64.5917 150.65 64.2433 150.65 63.84V54.985C150.65 54.5817 150.797 54.2333 151.09 53.94C151.383 53.6467 151.732 53.5 152.135 53.5ZM200.491 57.02C203.864 54.3067 208.319 52.95 213.856 52.95C219.392 52.95 223.829 54.325 227.166 57.075C230.539 59.7883 232.226 63.62 232.226 68.57V77.15C232.226 82.1733 230.557 86.005 227.221 88.645C223.921 91.2483 219.466 92.55 213.856 92.55C208.246 92.55 203.772 91.2483 200.436 88.645C197.136 86.005 195.486 82.1733 195.486 77.15V68.57C195.486 63.5833 197.154 59.7333 200.491 57.02ZM210.886 80.725C211.619 81.4583 212.609 81.825 213.856 81.825C215.102 81.825 216.092 81.4583 216.826 80.725C217.559 79.9917 217.926 78.8733 217.926 77.37V68.13C217.926 66.6633 217.559 65.5633 216.826 64.83C216.092 64.06 215.102 63.675 213.856 63.675C212.609 63.675 211.619 64.06 210.886 64.83C210.152 65.5633 209.786 66.6633 209.786 68.13V77.37C209.786 78.8733 210.152 79.9917 210.886 80.725ZM245.25 53.5H261.09C266.444 53.5 270.844 54.8383 274.29 57.515C277.774 60.155 279.515 63.8583 279.515 68.625V76.82C279.515 81.8067 277.829 85.5833 274.455 88.15C271.082 90.7167 266.645 92 261.145 92H245.25C244.847 92 244.499 91.8533 244.205 91.56C243.912 91.2667 243.765 90.9183 243.765 90.515V54.985C243.765 54.5817 243.912 54.2333 244.205 53.94C244.499 53.6467 244.847 53.5 245.25 53.5ZM257.515 64.225V81.275H261.09C262.337 81.275 263.327 80.9083 264.06 80.175C264.83 79.405 265.215 78.2867 265.215 76.82V68.625C265.215 65.6917 263.84 64.225 261.09 64.225H257.515ZM294.958 57.02C298.331 54.3067 302.786 52.95 308.323 52.95C313.859 52.95 318.296 54.325 321.633 57.075C325.006 59.7883 326.693 63.62 326.693 68.57V77.15C326.693 82.1733 325.024 86.005 321.688 88.645C318.388 91.2483 313.933 92.55 308.323 92.55C302.713 92.55 298.239 91.2483 294.903 88.645C291.603 86.005 289.953 82.1733 289.953 77.15V68.57C289.953 63.5833 291.621 59.7333 294.958 57.02ZM305.353 80.725C306.086 81.4583 307.076 81.825 308.323 81.825C309.569 81.825 310.559 81.4583 311.293 80.725C312.026 79.9917 312.393 78.8733 312.393 77.37V68.13C312.393 66.6633 312.026 65.5633 311.293 64.83C310.559 64.06 309.569 63.675 308.323 63.675C307.076 63.675 306.086 64.06 305.353 64.83C304.619 65.5633 304.253 66.6633 304.253 68.13V77.37C304.253 78.8733 304.619 79.9917 305.353 80.725ZM352.202 80.725H367.437C367.841 80.725 368.189 80.8717 368.482 81.165C368.776 81.4583 368.922 81.8067 368.922 82.21V90.515C368.922 90.9183 368.776 91.2667 368.482 91.56C368.189 91.8533 367.841 92 367.437 92H339.717C339.314 92 338.966 91.8533 338.672 91.56C338.379 91.2667 338.232 90.9183 338.232 90.515V54.985C338.232 54.5817 338.379 54.2333 338.672 53.94C338.966 53.6467 339.314 53.5 339.717 53.5H350.717C351.121 53.5 351.469 53.6467 351.762 53.94C352.056 54.2333 352.202 54.5817 352.202 54.985V80.725ZM392.101 92H380.881C380.478 92 380.13 91.8533 379.836 91.56C379.543 91.2667 379.396 90.9183 379.396 90.515V54.985C379.396 54.5817 379.543 54.2333 379.836 53.94C380.13 53.6467 380.478 53.5 380.881 53.5H392.101C392.505 53.5 392.853 53.6467 393.146 53.94C393.44 54.2333 393.586 54.5817 393.586 54.985V90.515C393.586 90.9183 393.44 91.2667 393.146 91.56C392.853 91.8533 392.505 92 392.101 92ZM405.23 65.6C405.23 61.86 406.77 58.8167 409.85 56.47C412.966 54.1233 417.036 52.95 422.06 52.95C427.12 52.95 431.245 54.1783 434.435 56.635C437.661 59.0917 439.275 61.6583 439.275 64.335C439.275 64.665 439.146 64.9583 438.89 65.215C438.67 65.435 438.413 65.545 438.12 65.545H427.12C426.276 65.545 425.506 65.2333 424.81 64.61C424.113 63.9867 423.178 63.675 422.005 63.675C420.245 63.675 419.365 64.1883 419.365 65.215C419.365 65.765 419.786 66.2233 420.63 66.59C421.51 66.9567 423.123 67.2867 425.47 67.58C430.933 68.2767 434.82 69.56 437.13 71.43C439.476 73.2633 440.65 76.0683 440.65 79.845C440.65 83.585 438.926 86.6467 435.48 89.03C432.07 91.3767 427.596 92.55 422.06 92.55C416.523 92.55 412.178 91.4133 409.025 89.14C405.871 86.8667 404.295 84.0983 404.295 80.835C404.295 80.505 404.405 80.23 404.625 80.01C404.881 79.7533 405.175 79.625 405.505 79.625H415.955C416.725 79.625 417.568 79.9917 418.485 80.725C419.438 81.4583 420.74 81.825 422.39 81.825C425.14 81.825 426.515 81.3117 426.515 80.285C426.515 79.625 426.02 79.13 425.03 78.8C424.04 78.4333 422.17 78.0667 419.42 77.7C409.96 76.4533 405.23 72.42 405.23 65.6ZM450.918 53.5H483.148C483.552 53.5 483.9 53.6467 484.193 53.94C484.487 54.2333 484.633 54.5817 484.633 54.985V63.84C484.633 64.2433 484.487 64.5917 484.193 64.885C483.9 65.1783 483.552 65.325 483.148 65.325H474.018V90.515C474.018 90.9183 473.872 91.2667 473.578 91.56C473.285 91.8533 472.937 92 472.533 92H461.533C461.13 92 460.782 91.8533 460.488 91.56C460.195 91.2667 460.048 90.9183 460.048 90.515V65.325H450.918C450.515 65.325 450.167 65.1783 449.873 64.885C449.58 64.5917 449.433 64.2433 449.433 63.84V54.985C449.433 54.5817 449.58 54.2333 449.873 53.94C450.167 53.6467 450.515 53.5 450.918 53.5Z" fill="#198754"/>
</svg>
